HIERARCHY
ROOT Hips
{
	OFFSET 0.00000 0.00000 0.00000
	CHANNELS 6 Xposition Yposition Zposition Zrotation Yrotation Xrotation 
	JOINT LHipJoint
	{
		OFFSET 0 0 0
		CHANNELS 3 Zrotation Yrotation Xrotation
		JOINT LeftHip
		{
			OFFSET 1.65412 -1.54119 0.76744
			CHANNELS 3 Zrotation Yrotation Xrotation
			JOINT LeftKnee
			{
				OFFSET 2.19550 -6.03209 0.00000
				CHANNELS 3 Zrotation Yrotation Xrotation
				JOINT LeftAnkle
				{
					OFFSET 2.38814 -6.56138 0.00000
					CHANNELS 3 Zrotation Yrotation Xrotation
					JOINT LeftToe
					{
						OFFSET 0.17337 -0.47632 1.75875
						CHANNELS 3 Zrotation Yrotation Xrotation
						End Site
						{
							OFFSET 0.00000 -0.00000 0.92050
						}
					}
				}
			}
		}
	}
	JOINT RHipJoint
	{
		OFFSET 0 0 0
		CHANNELS 3 Zrotation Yrotation Xrotation
		JOINT RightHip
		{
			OFFSET -1.40291 -1.54119 0.76744
			CHANNELS 3 Zrotation Yrotation Xrotation
			JOINT RightKnee
			{
				OFFSET -2.22156 -6.10370 0.00000
				CHANNELS 3 Zrotation Yrotation Xrotation
				JOINT RightAnkle
				{
					OFFSET -2.46840 -6.78188 0.00000
					CHANNELS 3 Zrotation Yrotation Xrotation
					JOINT RightToe
					{
						OFFSET -0.15659 -0.43024 1.84117
						CHANNELS 3 Zrotation Yrotation Xrotation
						End Site
						{
							OFFSET -0.00000 -0.00000 0.95587
						}
					}
				}
			}
		}
	}
	JOINT lowerback
	{
		OFFSET 0 0 0
		CHANNELS 3 Zrotation Yrotation Xrotation
		JOINT Chest
		{
			OFFSET -0.01936 1.82120 -0.32061
			CHANNELS 3 Zrotation Yrotation Xrotation
			JOINT Chest2
			{
				OFFSET -0.00532 1.85767 -0.00071
				CHANNELS 3 Zrotation Yrotation Xrotation
				JOINT lowerneck
				{
					OFFSET 0 0 0
					CHANNELS 3 Zrotation Yrotation Xrotation
					JOINT Neck
					{
						OFFSET -0.10687 1.58194 0.10810
						CHANNELS 3 Zrotation Yrotation Xrotation
						JOINT Head
						{
							OFFSET 0.15346 1.57382 -0.25612
							CHANNELS 3 Zrotation Yrotation Xrotation
							End Site
							{
								OFFSET 0.05334 1.61251 -0.10513
							}
						}
					}
				}
				JOINT LeftCollar
				{
					OFFSET 0 0 0
					CHANNELS 3 Zrotation Yrotation Xrotation
					JOINT LeftShoulder
					{
						OFFSET 2.85758 0.89498 -0.01485
CHANNELS 3 Zrotation Xrotation Yrotation
						JOINT LeftElbow
						{
OFFSET 0 -4.791850 -0.000000
CHANNELS 3 Zrotation Xrotation Yrotation
							JOINT LeftWrist
							{
OFFSET 0 -2.655530 0.000000
CHANNELS 3 Zrotation Xrotation Yrotation
								JOINT lhand
								{
									OFFSET 0 0 0
CHANNELS 3 Zrotation Xrotation Yrotation
									JOINT LFingers
									{
OFFSET 0 -0.743900 0.000000
CHANNELS 3 Zrotation Xrotation Yrotation
										End Site
										{
OFFSET 0 -0.599750 0.000000
										}
									}
								}
								JOINT LThumb
								{
OFFSET 0 0.000000 0.000000
CHANNELS 3 Zrotation Xrotation Yrotation
									End Site
									{
OFFSET 0 -0.608910 0.608910
									}
								}
							}
						}
					}
				}
				JOINT RightCollar
				{
					OFFSET 0 0 0
					CHANNELS 3 Zrotation Yrotation Xrotation
					JOINT RightShoulder
					{
						OFFSET -2.93906 0.88031 0.02490
CHANNELS 3 Zrotation Xrotation Yrotation
						JOINT RightElbow
						{
OFFSET 0 -4.772540 -0.000000
CHANNELS 3 Zrotation Xrotation Yrotation
							JOINT RightWrist
							{
OFFSET 0 -2.759950 -0.000000
CHANNELS 3 Zrotation Xrotation Yrotation
								JOINT rhand
								{
									OFFSET 0 0 0
CHANNELS 3 Zrotation Xrotation Yrotation
									JOINT RFingers
									{
OFFSET 0 -0.701620 0.000000
CHANNELS 3 Zrotation Xrotation Yrotation
										End Site
										{
OFFSET 0 -0.565660 0.000000
										}
									}
								}
								JOINT RThumb
								{
OFFSET 0 0.000000 0.000000
CHANNELS 3 Zrotation Xrotation Yrotation
									End Site
									{
OFFSET 0 -0.574300 0.574300
									}
								}
							}
						}
					}
				}
			}
		}
	}
}
MOTION
Frames: 6
Frame Time: 0.008333333333333333
0.524800 16.249100 0.336000 -1.794100 2.621400 6.580700 0.000000 0.000000 0.000000 -16.088800 -15.591900 2.140500 0.123100 2.261800 6.229600 -0.074600 9.631200 -12.362100 0.197100 -2.858700 -7.885700 0.000000 0.000000 0.000000 17.314100 8.022800 1.504200 -0.066700 -1.666800 4.585700 0.249000 -11.235100 -11.558500 -0.036700 1.236300 -3.399300 -3.536300 0.502300 10.882000 -1.399100 0.099600 -1.011100 0.499900 0.157700 -7.194500 -14.784100 -10.176400 -6.990400 11.667800 -13.937200 15.200800 4.820500 -6.719500 7.693800 -0.000000 -0.000000 0.000000 7.754000 5.785100 -22.398000 19.560900 -30.109600 5.309300 11.013700 -4.088100 -14.326400 0.000000 0.000000 0.000000 -7.125000 0.000000 0.000000 -15.081900 44.030100 -0.369800 -0.000000 -0.000000 0.000000 -11.930100 13.352900 32.986800 -24.818800 -36.018300 -8.183100 -18.108400 -5.864500 -14.907800 0.000000 0.000000 0.000000 7.125000 0.000000 -0.000000 6.393100 14.400900 4.631700
0.555934 16.241104 0.362736 -1.835243 2.504736 5.808443 0.000000 0.000000 0.000000 -16.402431 -15.297507 2.810109 0.143255 2.438848 6.720087 -0.033859 9.424041 -12.820632 0.192350 -2.824412 -7.790365 0.000000 0.000000 0.000000 17.332997 7.726158 2.768935 -0.050422 -1.449139 3.985452 0.248234 -11.219566 -11.544834 -0.014875 0.769550 -2.114936 -3.236489 0.508395 10.497950 -1.316360 0.169647 -1.055386 0.409124 0.180365 -7.023458 -14.607115 -10.048442 -7.600752 10.949709 -13.766048 17.408973 4.548663 -6.649483 8.442528 0.000000 0.000000 0.000000 7.816193 5.174339 -25.710029 22.288538 -33.301286 6.743771 11.470257 -6.224125 -14.231520 0.000000 0.000000 0.000000 -7.125000 0.000000 0.000000 -14.648425 43.987464 -0.374844 0.000000 0.000000 0.000000 -11.754961 13.029295 32.353997 -24.602812 -35.795182 -8.056466 -18.089372 -5.074195 -14.287077 0.000000 0.000000 0.000000 7.125000 0.000000 0.000000 6.389289 15.046691 4.540299
0.591162 16.213911 0.388690 -1.655526 2.122948 4.845668 0.000000 0.000000 0.000000 -17.027605 -14.579071 3.948236 0.140727 2.417436 6.660783 -0.024808 9.315569 -12.827770 0.185499 -2.774093 -7.650502 0.000000 0.000000 0.000000 17.203390 7.790906 3.793821 -0.061415 -1.598163 4.396403 0.262469 -11.430625 -11.656442 -0.079487 1.817494 -5.001644 -3.343148 0.515828 10.095895 -1.221947 0.191998 -1.018717 0.567948 0.193675 -6.756922 -14.528254 -9.896076 -7.954346 10.403874 -13.585242 19.411293 4.365528 -6.585793 9.115512 0.000000 0.000000 0.000000 7.609811 4.404017 -27.069247 24.546513 -35.736717 8.023611 10.490740 -7.365254 -13.863599 0.000000 0.000000 0.000000 -7.125000 0.000000 0.000000 -15.406305 43.520946 -0.576453 0.000000 0.000000 0.000000 -11.647824 12.920501 32.289196 -24.532324 -35.722164 -8.015258 -18.473429 -5.465299 -14.324266 0.000000 0.000000 0.000000 7.125000 0.000000 0.000000 6.128484 14.971427 4.362649
0.630605 16.200244 0.419186 -1.631641 1.589030 3.871737 0.000000 0.000000 0.000000 -17.494271 -13.634188 5.174602 0.131798 2.339710 6.445507 -0.005593 9.160888 -12.954085 0.200769 -2.885125 -7.959170 0.000000 0.000000 0.000000 17.156898 8.055996 4.763958 -0.074653 -1.762578 4.850027 0.241389 -11.347486 -11.962445 -0.072570 1.737180 -4.779821 -3.086035 0.551757 9.658663 -1.211330 0.292899 -0.963307 0.422763 0.229894 -6.450644 -14.096731 -9.728474 -8.558278 9.770097 -13.379803 21.437345 4.090686 -6.489755 9.826920 0.000000 0.000000 0.000000 7.598828 4.082386 -28.400412 26.267393 -37.471425 9.049891 10.777317 -7.294035 -14.606772 0.000000 0.000000 0.000000 -7.125000 0.000000 0.000000 -15.376871 44.277642 -0.281020 0.000000 0.000000 0.000000 -11.205388 12.694559 32.032837 -24.191537 -35.366080 -7.817156 -18.338630 -5.429398 -14.255029 0.000000 0.000000 0.000000 7.125000 0.000000 0.000000 6.218467 15.056381 4.416127
0.667205 16.180503 0.450426 -1.671532 1.120441 2.964635 0.000000 0.000000 0.000000 -17.862801 -12.814541 6.189932 0.136092 2.377242 6.549506 0.030211 8.879567 -13.197871 0.182111 -2.748934 -7.580481 0.000000 0.000000 0.000000 17.209973 8.230950 5.799645 -0.081845 -1.845206 5.078074 0.246672 -11.456393 -12.064538 -0.113060 2.168027 -5.970257 -2.872927 0.479751 9.264091 -1.107508 0.244328 -0.971180 0.421893 0.198323 -6.231942 -13.638869 -9.498129 -9.231232 8.990691 -13.045108 23.551591 3.776197 -6.347912 10.579734 0.000000 0.000000 0.000000 7.243011 4.039122 -28.837877 26.720656 -37.911499 9.326977 10.633637 -7.944506 -13.790684 0.000000 0.000000 0.000000 -7.125000 0.000000 0.000000 -15.258553 43.465172 -0.592592 0.000000 0.000000 0.000000 -10.906422 12.862846 32.251767 -24.068639 -35.236698 -7.746107 -18.302982 -5.245215 -14.146282 0.000000 0.000000 0.000000 7.125000 0.000000 0.000000 6.239927 15.172764 4.415933
0.692331 16.164084 0.467102 -1.598509 0.654220 2.168244 0.000000 0.000000 0.000000 -18.191382 -11.978240 7.219844 0.118828 2.222323 6.120493 0.025503 8.833246 -13.052160 0.198197 -2.866510 -7.907348 0.000000 0.000000 0.000000 17.208222 8.545926 6.409876 -0.106882 -2.107808 5.803655 0.209472 -11.307211 -12.561984 -0.110661 2.144702 -5.905726 -2.920672 0.521661 9.075058 -1.022015 0.306060 -1.035084 0.530244 0.231933 -6.194646 -13.388654 -9.360964 -9.452256 8.517174 -12.876696 25.017874 3.592158 -6.290231 11.091627 0.000000 0.000000 0.000000 7.181537 4.214697 -29.520991 26.087291 -37.294630 8.940561 10.751429 -7.992319 -13.662191 0.000000 0.000000 0.000000 -7.125000 0.000000 0.000000 -15.117148 43.352053 -0.630111 0.000000 0.000000 0.000000 -10.162647 13.130660 31.799557 -23.727330 -34.874542 -7.550082 -18.337943 -5.577983 -14.034191 0.000000 0.000000 0.000000 7.125000 0.000000 0.000000 6.213209 15.285905 4.381568
